<svg xmlns="http://www.w3.org/2000/svg" width="65" height="61.443" viewBox="0 0 65 61.443">
  <g id="Neura-simbol-white_-_64x64" data-name="Neura-simbol-white - 64x64" transform="translate(0.45 -1.48)">
    <path id="Path_7098" data-name="Path 7098" d="M31.99,28.85a5.07,5.07,0,1,0,3.04,9.13v.55h2.03V34h0v-.08a5.07,5.07,0,0,0-5.07-5.07Zm0,6.76a1.69,1.69,0,1,1,1.69-1.69A1.694,1.694,0,0,1,31.99,35.61Z" transform="translate(0.04 0.04)" fill="#fff" stroke="#000203" stroke-width="1"/>
    <path id="Path_7099" data-name="Path 7099" d="M55.3,43.782a24.918,24.918,0,0,0,1.833-7.091H53.725a21.865,21.865,0,1,1-2.7-13.57H47.264v.431h0v2.984h8.894a23.983,23.983,0,0,0-.871-2.414,25.218,25.218,0,1,0,0,19.649Z" transform="translate(0)" fill="#fff" stroke="#000203" stroke-width="1"/>
    <path id="Path_7100" data-name="Path 7100" d="M40.3,25.61a11.758,11.758,0,0,0-12.87-2.52,11.653,11.653,0,0,0-3.73,2.52,11.758,11.758,0,0,0-2.52,12.87,11.783,11.783,0,0,0,5.76,6.02V40.56a8.37,8.37,0,0,1,5.07-15.03,8.271,8.271,0,0,1,3.91.98h5.2c-.26-.31-.52-.62-.81-.91Z" transform="translate(0.038 0.04)" fill="#fff" stroke="#000203" stroke-width="1"/>
    <path id="Path_7101" data-name="Path 7101" d="M61.507,21.494a32.077,32.077,0,0,0-12.8-14.849v.02a32.98,32.98,0,0,0-4.225-2.173,32.073,32.073,0,0,0-24.891,0,33.24,33.24,0,0,0-4.205,2.153h0c-.4.24-.791.491-1.181.751-.02.01-.03.02-.05.03-.821.561-1.622,1.151-2.393,1.782-.02.02-.05.04-.07.06-.36.3-.721.611-1.071.931-.05.05-.11.1-.16.15-.35.32-.691.641-1.021.971h0A31.925,31.925,0,0,0,2.593,21.484a31.972,31.972,0,0,0-.03,24.921,32.077,32.077,0,0,0,12.8,14.849s.971.561,1.472.831V58.16A28.624,28.624,0,0,1,4.5,26.2a.255.255,0,0,1,.02-.07c.15-.531.31-1.051.491-1.562a.037.037,0,0,1,.01-.03c.09-.26.19-.531.29-.791a.049.049,0,0,1,.01-.03c.18-.471.37-.931.581-1.392.04-.1.09-.2.14-.3q.24-.526.511-1.051c.06-.12.12-.25.19-.37.1-.2.21-.39.32-.581.09-.17.19-.33.29-.5l.451-.751.33-.511.3-.451c.18-.27.37-.541.571-.8.09-.13.19-.26.29-.38.19-.25.39-.511.591-.751.08-.1.17-.2.25-.3.2-.24.4-.471.611-.7l.22-.25c.26-.28.521-.551.781-.821l.2-.2c.591-.591,1.212-1.151,1.852-1.682.04-.03.07-.06.11-.09.33-.27.671-.541,1.021-.8a.176.176,0,0,0,.05-.04A28.6,28.6,0,0,1,56.661,48.518l-.09.15-.24.39c-.08.12-.15.25-.23.37-.06.09-.12.17-.17.26-.11.16-.22.33-.33.491-.04.06-.08.12-.12.17-.13.19-.27.38-.411.561-.02.03-.05.07-.07.1l-.481.631c0,.01-.02.02-.03.03a28.993,28.993,0,0,1-7.229,6.478v3.915c.5-.27.991-.561,1.482-.851h0a28.976,28.976,0,0,0,3.314-2.323c.03-.03.07-.05.1-.08.25-.2.491-.4.731-.611.06-.05.12-.1.17-.15.22-.2.451-.4.671-.6.06-.05.11-.1.17-.15.27-.25.531-.5.791-.761h0a32.011,32.011,0,0,0,6.849-35.054Z" transform="translate(0 0)" fill="#fff" stroke="#000203" stroke-width="1"/>
    <path id="Path_7102" data-name="Path 7102" d="M13.62,31.58a18.446,18.446,0,0,0,1.313,9.55,18.582,18.582,0,0,0,30.235,5.89,18.482,18.482,0,0,0,5.442-13.1,18.112,18.112,0,0,0-.15-2.34H47.042a14.952,14.952,0,0,1,.18,2.34,15.183,15.183,0,1,1-30.185-2.34H13.62Z" transform="translate(0 0.057)" fill="#fff" stroke="#000203" stroke-width="1"/>
    <path id="Path_7103" data-name="Path 7103" d="M31.99,28.85a5.07,5.07,0,1,0,3.04,9.13v.55h2.03V34h0v-.08a5.07,5.07,0,0,0-5.07-5.07Zm0,6.76a1.69,1.69,0,1,1,1.69-1.69A1.694,1.694,0,0,1,31.99,35.61Z" transform="translate(0.04 0.04)" fill="#fff" stroke="#000203" stroke-width="1"/>
    <path id="Path_7104" data-name="Path 7104" d="M55.3,43.782a24.918,24.918,0,0,0,1.833-7.091H53.725a21.865,21.865,0,1,1-2.7-13.57H47.264v.431h0v2.984h8.894a23.983,23.983,0,0,0-.871-2.414,25.218,25.218,0,1,0,0,19.649Z" transform="translate(0)" fill="#fff" stroke="#000203" stroke-width="1"/>
    <path id="Path_7105" data-name="Path 7105" d="M40.3,25.61a11.758,11.758,0,0,0-12.87-2.52,11.653,11.653,0,0,0-3.73,2.52,11.758,11.758,0,0,0-2.52,12.87,11.783,11.783,0,0,0,5.76,6.02V40.56a8.37,8.37,0,0,1,5.07-15.03,8.271,8.271,0,0,1,3.91.98h5.2c-.26-.31-.52-.62-.81-.91Z" transform="translate(0.038 0.04)" fill="#fff" stroke="#000203" stroke-width="1"/>
    <path id="Path_7106" data-name="Path 7106" d="M61.507,21.494a32.077,32.077,0,0,0-12.8-14.849v.02a32.98,32.98,0,0,0-4.225-2.173,32.073,32.073,0,0,0-24.891,0,33.24,33.24,0,0,0-4.205,2.153h0c-.4.24-.791.491-1.181.751-.02.01-.03.02-.05.03-.821.561-1.622,1.151-2.393,1.782-.02.02-.05.04-.07.06-.36.3-.721.611-1.071.931-.05.05-.11.1-.16.15-.35.32-.691.641-1.021.971h0A31.925,31.925,0,0,0,2.593,21.484a31.972,31.972,0,0,0-.03,24.921,32.077,32.077,0,0,0,12.8,14.849s.971.561,1.472.831V58.16A28.624,28.624,0,0,1,4.5,26.2a.255.255,0,0,1,.02-.07c.15-.531.31-1.051.491-1.562a.037.037,0,0,1,.01-.03c.09-.26.19-.531.29-.791a.049.049,0,0,1,.01-.03c.18-.471.37-.931.581-1.392.04-.1.09-.2.14-.3q.24-.526.511-1.051c.06-.12.12-.25.19-.37.1-.2.21-.39.32-.581.09-.17.19-.33.29-.5l.451-.751.33-.511.3-.451c.18-.27.37-.541.571-.8.09-.13.19-.26.29-.38.19-.25.39-.511.591-.751.08-.1.17-.2.25-.3.2-.24.4-.471.611-.7l.22-.25c.26-.28.521-.551.781-.821l.2-.2c.591-.591,1.212-1.151,1.852-1.682.04-.03.07-.06.11-.09.33-.27.671-.541,1.021-.8a.176.176,0,0,0,.05-.04A28.6,28.6,0,0,1,56.661,48.518l-.09.15-.24.39c-.08.12-.15.25-.23.37-.06.09-.12.17-.17.26-.11.16-.22.33-.33.491-.04.06-.08.12-.12.17-.13.19-.27.38-.411.561-.02.03-.05.07-.07.1l-.481.631c0,.01-.02.02-.03.03a28.993,28.993,0,0,1-7.229,6.478v3.915c.5-.27.991-.561,1.482-.851h0a28.976,28.976,0,0,0,3.314-2.323c.03-.03.07-.05.1-.08.25-.2.491-.4.731-.611.06-.05.12-.1.17-.15.22-.2.451-.4.671-.6.06-.05.11-.1.17-.15.27-.25.531-.5.791-.761h0a32.011,32.011,0,0,0,6.849-35.054Z" transform="translate(0 0)" fill="#fff" stroke="#000203" stroke-width="1"/>
  </g>
</svg>
